{
	"asset":{
		"version":"2.0",
		"generator":"Created using the official Cinema 4D glTF Exporter 1.000x290161"
	},
	"scenes":[{
		"nodes":[0]
	}],
	"nodes":[{
		"translation":[392.3450012207031,
		0.0,
		132.65008544921876],
		"name":"39_obj_2002380__1",
		"rotation":[0.0,
		0.0,
		0.0,
		-1.0],
		"scale":[1.0,
		1.0,
		1.0],
		"mesh":0
	}],
	"meshes":[{
		"primitives":[{
			"attributes":{
				"POSITION":1,
				"NORMAL":2,
				"TEXCOORD_0":3
			},
			"indices":0,
			"material":0
		}]
	}],
	"accessors":[{
		"bufferView":0,
		"componentType":5123,
		"type":"SCALAR",
		"count":936,
		"byteOffset":0,
		"min":[0],
		"max":[368]
	},
	{
		"bufferView":1,
		"componentType":5126,
		"type":"VEC3",
		"count":369,
		"byteOffset":0,
		"min":[-558.4765014648438,
		19.86389923095703,
		-33.600250244140628],
		"max":[1323.2808837890626,
		8133.66357421875,
		1909.322998046875]
	},
	{
		"bufferView":1,
		"componentType":5126,
		"type":"VEC3",
		"count":369,
		"byteOffset":12,
		"min":[-0.9977188110351563,
		-0.9968438148498535,
		-0.9978125691413879],
		"max":[0.9609062671661377,
		0.9112188220024109,
		0.9895625710487366]
	},
	{
		"bufferView":1,
		"componentType":5126,
		"type":"VEC2",
		"count":369,
		"byteOffset":24,
		"min":[0.0005000000237487257,
		0.22849997878074647],
		"max":[0.9990000128746033,
		0.8948999643325806]
	}],
	"bufferViews":[{
		"buffer":0,
		"byteOffset":0,
		"target":34963,
		"byteLength":1872
	},
	{
		"buffer":0,
		"byteOffset":1872,
		"target":34962,
		"byteLength":11808,
		"byteStride":32
	}],
	"buffers":[{
		"uri":"data:application/octet-stream;base64,",
		"byteLength":13680
	}],
	"materials":[{
		"pbrMetallicRoughness":{
			"baseColorFactor":[1.0,
			1.0,
			1.0,
			1.0],
			"metallicFactor":1.0,
			"roughnessFactor":1.0
		},
		"emissiveFactor":[0.0,
		0.0,
		0.0],
		"alphaMode":"OPAQUE",
		"doubleSided":true,
		"name":""
	}]
}